<svg xmlns="http://www.w3.org/2000/svg" viewBox="0 0 400 300" width="400" height="300">
  <defs>
    <pattern id="stripe" x="0" y="0" width="18" height="18" patternUnits="userSpaceOnUse" patternTransform="rotate(45)">
      <rect width="8" height="18" fill="rgba(0,230,194,0.12)"/>
    </pattern>
  </defs>
  <rect width="400" height="300" fill="#0e1117"/>
  <rect width="400" height="300" fill="url(#stripe)"/>
  <rect x="152" y="102" width="96" height="96" rx="16" fill="rgba(0,230,194,0.15)" stroke="rgba(0,230,194,0.35)" stroke-width="1.5"/>
  <path d="M176 168v-28a4 4 0 0 1 4-4h40a4 4 0 0 1 4 4v28a4 4 0 0 1-4 4h-40a4 4 0 0 1-4-4z" fill="none" stroke="rgba(0,230,194,0.6)" stroke-width="1.5" stroke-linejoin="round"/>
  <circle cx="200" cy="152" r="8" fill="none" stroke="rgba(0,230,194,0.6)" stroke-width="1.5"/>
  <path d="M190 136l3-4h14l3 4" fill="none" stroke="rgba(0,230,194,0.6)" stroke-width="1.5" stroke-linejoin="round"/>
</svg>
